<svg xmlns="http://www.w3.org/2000/svg" xmlns:xlink="http://www.w3.org/1999/xlink" width="500" zoomAndPan="magnify" viewBox="0 0 375 374.999991" height="500" preserveAspectRatio="xMidYMid meet" version="1.0"><defs><clipPath id="c0ee9f43da"><path d="M 123 24.144531 L 303 24.144531 L 303 180 L 123 180 Z M 123 24.144531 " clip-rule="nonzero"/></clipPath><clipPath id="ed2dc8d94f"><path d="M 24.144531 146 L 213 146 L 213 300 L 24.144531 300 Z M 24.144531 146 " clip-rule="nonzero"/></clipPath></defs><path fill="#ffde59" d="M 249.652344 261.128906 C 252.246094 233.910156 251.808594 208.320312 251.332031 195.703125 L 221.96875 246.558594 L 222.015625 246.621094 C 222.003906 246.628906 221.960938 246.660156 221.882812 246.710938 L 221.78125 246.882812 L 221.621094 246.882812 C 218.003906 249.28125 190.050781 267.570312 156.949219 282.703125 C 136.136719 292.21875 117.367188 298.652344 101.15625 301.832031 C 90.6875 303.886719 81.253906 304.578125 72.910156 303.914062 C 102.398438 332.933594 142.851562 350.839844 187.488281 350.839844 C 199.75 350.839844 211.695312 349.484375 223.1875 346.921875 C 229.226562 339.789062 234.378906 330.058594 238.570312 317.820312 C 243.792969 302.578125 247.523438 283.503906 249.65625 261.128906 Z M 249.652344 261.128906 " fill-opacity="1" fill-rule="nonzero"/><g clip-path="url(#c0ee9f43da)"><path fill="#ffde59" d="M 153.191406 128.085938 L 153.355469 128.085938 C 156.96875 125.691406 184.925781 107.402344 218.027344 92.269531 C 238.839844 82.753906 257.609375 76.316406 273.816406 73.140625 C 284.285156 71.085938 293.722656 70.394531 302.0625 71.058594 C 272.578125 42.039062 232.125 24.132812 187.484375 24.132812 C 175.222656 24.132812 163.277344 25.488281 151.789062 28.046875 C 145.75 35.179688 140.597656 44.914062 136.402344 57.152344 C 131.179688 72.394531 127.453125 91.46875 125.320312 113.84375 C 122.726562 141.0625 123.164062 166.648438 123.640625 179.269531 L 153.003906 128.414062 L 152.960938 128.347656 C 152.96875 128.34375 153.015625 128.3125 153.089844 128.261719 Z M 153.191406 128.085938 " fill-opacity="1" fill-rule="nonzero"/></g><path fill="#ffde59" d="M 274.832031 78.082031 C 259.019531 81.179688 240.636719 87.488281 220.191406 96.828125 C 195.320312 108.195312 173.382812 121.367188 162.691406 128.089844 L 221.414062 128.089844 L 221.449219 128.019531 C 221.457031 128.027344 221.507812 128.050781 221.589844 128.089844 L 221.789062 128.089844 L 221.871094 128.230469 C 225.753906 130.164062 255.570312 145.226562 285.226562 166.328125 C 303.875 179.59375 318.832031 192.632812 329.691406 205.078125 C 336.722656 213.140625 342.042969 220.984375 345.640625 228.558594 C 349.039062 215.4375 350.847656 201.671875 350.847656 187.488281 C 350.847656 144.804688 334.476562 105.945312 307.671875 76.84375 C 298.484375 75.191406 287.5 75.601562 274.828125 78.082031 Z M 274.832031 78.082031 " fill-opacity="1" fill-rule="nonzero"/><path fill="#ffde59" d="M 325.898438 208.417969 C 315.308594 196.273438 300.65625 183.503906 282.34375 170.472656 C 260.066406 154.617188 237.691406 142.203125 226.523438 136.300781 L 255.886719 187.160156 L 255.960938 187.152344 C 255.964844 187.164062 255.96875 187.21875 255.972656 187.308594 L 256.074219 187.484375 L 255.992188 187.625 C 256.261719 191.953125 258.125 225.308594 254.679688 261.542969 C 252.511719 284.324219 248.699219 303.796875 243.347656 319.425781 C 239.882812 329.542969 235.753906 338.074219 230.992188 344.980469 C 284.453125 330.242188 326.929688 289.019531 343.417969 236.304688 C 340.261719 227.503906 334.40625 218.171875 325.898438 208.414062 Z M 325.898438 208.417969 " fill-opacity="1" fill-rule="nonzero"/><g clip-path="url(#ed2dc8d94f)"><path fill="#ffde59" d="M 100.15625 296.882812 C 115.964844 293.785156 134.347656 287.476562 154.792969 278.136719 C 179.664062 266.769531 201.601562 253.601562 212.292969 246.875 L 153.570312 246.875 L 153.535156 246.945312 C 153.527344 246.941406 153.476562 246.917969 153.394531 246.875 L 153.195312 246.875 L 153.113281 246.738281 C 149.230469 244.804688 119.414062 229.738281 89.757812 208.636719 C 71.109375 195.371094 56.152344 182.335938 45.292969 169.886719 C 38.261719 161.828125 32.941406 153.980469 29.34375 146.40625 C 25.945312 159.53125 24.136719 173.292969 24.136719 187.476562 C 24.136719 230.164062 40.507812 269.019531 67.3125 298.121094 C 76.5 299.773438 87.484375 299.367188 100.15625 296.882812 Z M 100.15625 296.882812 " fill-opacity="1" fill-rule="nonzero"/></g><path fill="#ffde59" d="M 49.074219 166.558594 C 59.664062 178.703125 74.316406 191.46875 92.628906 204.503906 C 114.90625 220.359375 137.28125 232.773438 148.449219 238.671875 L 119.085938 187.816406 L 119.011719 187.820312 C 119.007812 187.808594 119.003906 187.753906 119 187.664062 L 118.898438 187.488281 L 118.980469 187.351562 C 118.710938 183.019531 116.847656 149.667969 120.292969 113.433594 C 122.460938 90.652344 126.273438 71.175781 131.625 55.550781 C 135.089844 45.429688 139.21875 36.898438 143.980469 29.996094 C 90.519531 44.730469 48.042969 85.957031 31.554688 138.667969 C 34.710938 147.46875 40.566406 156.804688 49.074219 166.558594 Z M 49.074219 166.558594 " fill-opacity="1" fill-rule="nonzero"/></svg>